# Blender 5.2.2 LTS
# www.blender.org
mtllib reference_vehicle_lowpoly_v001.mtl
o Central_lower_fuselage
v -2.700000 0.180000 0.310000
v -2.700000 0.450000 0.310000
v -2.700000 0.540000 0.000000
v -2.700000 0.450000 -0.310000
v -2.700000 0.180000 -0.310000
v -1.550000 0.170000 0.610000
v -1.550000 0.490000 0.610000
v -1.550000 0.580000 0.000000
v -1.550000 0.490000 -0.610000
v -1.550000 0.170000 -0.610000
v 0.150000 0.170000 0.650000
v 0.150000 0.480000 0.650000
v 0.150000 0.570000 0.000000
v 0.150000 0.480000 -0.650000
v 0.150000 0.170000 -0.650000
v 1.660000 0.220000 0.400000
v 1.660000 0.380000 0.400000
v 1.660000 0.470000 0.000000
v 1.660000 0.380000 -0.400000
v 1.660000 0.220000 -0.400000
v 3.420000 0.280000 0.025000
v 3.420000 0.260000 0.025000
v 3.420000 0.350000 0.000000
v 3.420000 0.260000 -0.025000
v 3.420000 0.280000 -0.025000
vn 1.0000 -0.0000 -0.0000
vn 0.2524 -0.0000 -0.9676
vn 0.0591 -0.9797 -0.1917
vn 0.0591 -0.9797 0.1917
vn 0.2524 -0.0000 0.9676
vn 0.0087 1.0000 -0.0000
vn 0.0235 -0.0000 -0.9997
vn -0.0042 -0.9899 -0.1414
vn -0.0042 -0.9899 0.1414
vn 0.0235 -0.0000 0.9997
vn -0.0000 1.0000 -0.0000
vn -0.1633 -0.0000 -0.9866
vn -0.0790 -0.9825 -0.1684
vn -0.0790 -0.9825 0.1684
vn -0.1633 -0.0000 0.9866
vn -0.0331 0.9995 -0.0000
vn -0.2084 -0.0000 -0.9780
vn -0.1038 -0.9158 -0.3879
vn -0.1038 -0.9158 0.3879
vn -0.2084 -0.0000 0.9780
vn -0.0341 0.9994 -0.0000
vn -1.0000 -0.0000 -0.0000
s 0
usemtl Frame_|_charcoal
f 2//3 3//3 8//3 7//3
f 3//4 4//4 9//4 8//4
f 7//8 8//8 13//8 12//8
f 8//9 9//9 14//9 13//9
f 12//13 13//13 18//13 17//13
f 13//14 14//14 19//14 18//14
f 17//18 18//18 23//18 22//18
f 18//19 19//19 24//19 23//19
usemtl Frame_|_gunmetal
f 5//1 4//1 3//1 2//1 1//1
f 1//2 2//2 7//2 6//2
f 4//5 5//5 10//5 9//5
f 5//6 1//6 6//6 10//6
f 6//7 7//7 12//7 11//7
f 9//10 10//10 15//10 14//10
f 10//11 6//11 11//11 15//11
f 11//12 12//12 17//12 16//12
f 14//15 15//15 20//15 19//15
f 15//16 11//16 16//16 20//16
f 16//17 17//17 22//17 21//17
f 19//20 20//20 25//20 24//20
f 20//21 16//21 21//21 25//21
f 21//22 22//22 23//22 24//22 25//22
o port_forward_armor
v 0.220000 0.440000 1.280000
v 0.220000 1.010000 1.280000
v 0.220000 1.100000 0.910000
v 0.220000 1.010000 0.540000
v 0.220000 0.440000 0.540000
v 0.750000 0.430000 1.450000
v 0.750000 1.010000 1.450000
v 0.750000 1.100000 1.020000
v 0.750000 1.010000 0.590000
v 0.750000 0.430000 0.590000
v 1.900000 0.380000 1.280000
v 1.900000 0.770000 1.280000
v 1.900000 0.860000 0.880000
v 1.900000 0.770000 0.480000
v 1.900000 0.380000 0.480000
v 2.850000 0.340000 0.850000
v 2.850000 0.520000 0.850000
v 2.850000 0.610000 0.540000
v 2.850000 0.520000 0.230000
v 2.850000 0.340000 0.230000
v 3.590000 0.330000 0.053000
v 3.590000 0.300000 0.053000
v 3.590000 0.390000 0.035000
v 3.590000 0.300000 0.017000
v 3.590000 0.330000 0.017000
vn 1.0000 -0.0000 -0.0000
vn 0.3054 -0.0000 -0.9522
vn 0.0579 -0.9740 -0.2191
vn -0.0331 -0.9751 0.2194
vn -0.0939 -0.0000 0.9956
vn 0.0189 0.9998 -0.0000
vn -0.1462 -0.0000 -0.9892
vn -0.2265 -0.9519 -0.2064
vn -0.1780 -0.9617 0.2086
vn 0.0952 -0.0000 0.9955
vn 0.0434 0.9991 -0.0000
vn -0.4124 -0.0000 -0.9110
vn -0.3343 -0.9136 -0.2316
vn -0.1760 -0.9542 0.2419
vn 0.2545 -0.0000 0.9671
vn 0.0421 0.9991 -0.0000
vn -0.7328 -0.0000 -0.6804
vn -0.5645 -0.7236 -0.3971
vn -0.0272 -0.8763 0.4809
vn 0.2766 -0.0000 0.9610
vn 0.0135 0.9999 -0.0000
vn -1.0000 -0.0000 -0.0000
s 0
usemtl Armor_|_violet
f 27//25 28//25 33//25 32//25
f 28//26 29//26 34//26 33//26
f 32//30 33//30 38//30 37//30
f 33//31 34//31 39//31 38//31
f 37//35 38//35 43//35 42//35
f 38//36 39//36 44//36 43//36
f 42//40 43//40 48//40 47//40
f 43//41 44//41 49//41 48//41
usemtl Armor_|_shadow_facets
f 30//23 29//23 28//23 27//23 26//23
f 26//24 27//24 32//24 31//24
f 29//27 30//27 35//27 34//27
f 30//28 26//28 31//28 35//28
f 31//29 32//29 37//29 36//29
f 34//32 35//32 40//32 39//32
f 35//33 31//33 36//33 40//33
f 36//34 37//34 42//34 41//34
f 39//37 40//37 45//37 44//37
f 40//38 36//38 41//38 45//38
f 41//39 42//39 47//39 46//39
f 44//42 45//42 50//42 49//42
f 45//43 41//43 46//43 50//43
f 46//44 47//44 48//44 49//44 50//44
o port_raised_armor_facet
v 0.770000 1.110000 0.870000
v 1.870000 0.870000 0.840000
v 2.750000 0.630000 0.530000
v 1.520000 0.960000 0.690000
v 0.770000 1.085000 0.870000
v 1.870000 0.845000 0.840000
v 2.750000 0.605000 0.530000
v 1.520000 0.935000 0.690000
vn 0.2394 0.9706 0.0238
vn -0.2394 -0.9706 -0.0238
vn -0.0273 -0.0000 -0.9996
vn -0.3323 -0.0000 -0.9432
vn 0.1290 -0.0000 0.9916
vn 0.2334 -0.0000 0.9724
s 0
usemtl Armor_|_lit_facets
f 51//45 52//45 53//45 54//45
f 58//46 57//46 56//46 55//46
f 51//47 52//47 56//47 55//47
f 52//48 53//48 57//48 56//48
f 53//49 54//49 58//49 57//49
f 54//50 51//50 55//50 58//50
o port_forward_light
v 0.752378 0.616918 1.479378
v 2.932378 0.466918 0.909378
v 0.741833 0.591409 1.445763
v 2.921833 0.441408 0.875763
v 0.742575 0.550133 1.459462
v 2.922575 0.400132 0.889462
v 0.753578 0.550133 1.501544
v 2.933578 0.400132 0.931544
v 0.759636 0.591409 1.513853
v 2.939636 0.441408 0.943852
vn -0.0967 0.8072 -0.5823
vn -0.2604 -0.3083 -0.9149
vn -0.0643 -0.9978 0.0168
vn 0.9653 -0.0664 -0.2524
vn 0.2207 -0.3083 0.9253
vn 0.2007 0.8072 0.5551
vn -0.9653 0.0664 0.2524
vt 1.000000 0.500000
vt 1.000000 1.000000
vt 0.800000 1.000000
vt 0.800000 0.500000
vt 0.600000 1.000000
vt 0.600000 0.500000
vt 0.400000 1.000000
vt 0.400000 0.500000
vt 0.478254 0.324164
vt 0.250000 0.490000
vt 0.021746 0.324164
vt 0.108932 0.055836
vt 0.391068 0.055836
vt 0.200000 1.000000
vt 0.200000 0.500000
vt 0.000000 1.000000
vt 0.000000 0.500000
vt 0.750000 0.490000
vt 0.978254 0.324164
vt 0.891068 0.055836
vt 0.608932 0.055836
vt 0.521746 0.324164
s 0
usemtl Lights_|_electric_blue
f 59/1/51 60/2/51 62/3/51 61/4/51
f 61/4/52 62/3/52 64/5/52 63/6/52
f 63/6/53 64/5/53 66/7/53 65/8/53
f 62/9/54 60/10/54 68/11/54 66/12/54 64/13/54
f 65/8/55 66/7/55 68/14/55 67/15/55
f 67/15/56 68/14/56 60/16/56 59/17/56
f 59/18/57 61/19/57 63/20/57 65/21/57 67/22/57
o port_lower_nose_light
v 1.669880 0.322000 0.740042
v 3.309880 0.332000 0.170042
v 1.663094 0.306798 0.720249
v 3.303094 0.316798 0.150249
v 1.665852 0.282202 0.727752
v 3.305851 0.292202 0.157752
v 1.674342 0.282202 0.752181
v 3.314342 0.292202 0.182181
v 1.676832 0.306798 0.759776
v 3.316832 0.316798 0.189776
vn -0.1974 0.8090 -0.5537
vn -0.3105 -0.3090 -0.8989
vn 0.0054 -1.0000 -0.0019
vn 0.9446 0.0058 -0.3283
vn 0.3139 -0.3090 0.8978
vn 0.1886 0.8090 0.5567
vn -0.9446 -0.0058 0.3283
vt 1.000000 0.500000
vt 1.000000 1.000000
vt 0.800000 1.000000
vt 0.800000 0.500000
vt 0.600000 1.000000
vt 0.600000 0.500000
vt 0.400000 1.000000
vt 0.400000 0.500000
vt 0.478254 0.324164
vt 0.250000 0.490000
vt 0.021746 0.324164
vt 0.108932 0.055836
vt 0.391068 0.055836
vt 0.200000 1.000000
vt 0.200000 0.500000
vt 0.000000 1.000000
vt 0.000000 0.500000
vt 0.750000 0.490000
vt 0.978254 0.324164
vt 0.891068 0.055836
vt 0.608932 0.055836
vt 0.521746 0.324164
s 0
usemtl Lights_|_electric_blue
f 69/23/58 70/24/58 72/25/58 71/26/58
f 71/26/59 72/25/59 74/27/59 73/28/59
f 73/28/60 74/27/60 76/29/60 75/30/60
f 72/31/61 70/32/61 78/33/61 76/34/61 74/35/61
f 75/30/62 76/29/62 78/36/62 77/37/62
f 77/37/63 78/36/63 70/38/63 69/39/63
f 69/40/64 71/41/64 73/42/64 75/43/64 77/44/64
o starboard_forward_armor
v 0.220000 0.440000 -0.540000
v 0.220000 1.010000 -0.540000
v 0.220000 1.100000 -0.910000
v 0.220000 1.010000 -1.280000
v 0.220000 0.440000 -1.280000
v 0.750000 0.430000 -0.590000
v 0.750000 1.010000 -0.590000
v 0.750000 1.100000 -1.020000
v 0.750000 1.010000 -1.450000
v 0.750000 0.430000 -1.450000
v 1.900000 0.380000 -0.480000
v 1.900000 0.770000 -0.480000
v 1.900000 0.860000 -0.880000
v 1.900000 0.770000 -1.280000
v 1.900000 0.380000 -1.280000
v 2.850000 0.340000 -0.230000
v 2.850000 0.520000 -0.230000
v 2.850000 0.610000 -0.540000
v 2.850000 0.520000 -0.850000
v 2.850000 0.340000 -0.850000
v 3.590000 0.330000 -0.017000
v 3.590000 0.300000 -0.017000
v 3.590000 0.390000 -0.035000
v 3.590000 0.300000 -0.053000
v 3.590000 0.330000 -0.053000
vn 1.0000 -0.0000 -0.0000
vn -0.0939 -0.0000 -0.9956
vn -0.0331 -0.9751 -0.2194
vn 0.0579 -0.9740 0.2191
vn 0.3054 -0.0000 0.9522
vn 0.0189 0.9998 -0.0000
vn 0.0952 -0.0000 -0.9955
vn -0.1780 -0.9617 -0.2086
vn -0.2265 -0.9519 0.2064
vn -0.1462 -0.0000 0.9892
vn 0.0434 0.9991 -0.0000
vn 0.2545 -0.0000 -0.9671
vn -0.1760 -0.9542 -0.2419
vn -0.3343 -0.9136 0.2316
vn -0.4124 -0.0000 0.9110
vn 0.0421 0.9991 -0.0000
vn 0.2766 -0.0000 -0.9610
vn -0.0272 -0.8763 -0.4809
vn -0.5645 -0.7236 0.3971
vn -0.7328 -0.0000 0.6804
vn 0.0135 0.9999 -0.0000
vn -1.0000 -0.0000 -0.0000
s 0
usemtl Armor_|_violet
f 80//67 81//67 86//67 85//67
f 81//68 82//68 87//68 86//68
f 85//72 86//72 91//72 90//72
f 86//73 87//73 92//73 91//73
f 90//77 91//77 96//77 95//77
f 91//78 92//78 97//78 96//78
f 95//82 96//82 101//82 100//82
f 96//83 97//83 102//83 101//83
usemtl Armor_|_shadow_facets
f 83//65 82//65 81//65 80//65 79//65
f 79//66 80//66 85//66 84//66
f 82//69 83//69 88//69 87//69
f 83//70 79//70 84//70 88//70
f 84//71 85//71 90//71 89//71
f 87//74 88//74 93//74 92//74
f 88//75 84//75 89//75 93//75
f 89//76 90//76 95//76 94//76
f 92//79 93//79 98//79 97//79
f 93//80 89//80 94//80 98//80
f 94//81 95//81 100//81 99//81
f 97//84 98//84 103//84 102//84
f 98//85 94//85 99//85 103//85
f 99//86 100//86 101//86 102//86 103//86
o starboard_raised_armor_facet
v 0.770000 1.110000 -0.870000
v 1.870000 0.870000 -0.840000
v 2.750000 0.630000 -0.530000
v 1.520000 0.960000 -0.690000
v 0.770000 1.085000 -0.870000
v 1.870000 0.845000 -0.840000
v 2.750000 0.605000 -0.530000
v 1.520000 0.935000 -0.690000
vn -0.2394 -0.9706 0.0238
vn 0.2394 0.9706 -0.0238
vn 0.0273 -0.0000 -0.9996
vn 0.3323 -0.0000 -0.9432
vn -0.1290 -0.0000 0.9916
vn -0.2334 -0.0000 0.9724
s 0
usemtl Armor_|_lit_facets
f 104//87 105//87 106//87 107//87
f 111//88 110//88 109//88 108//88
f 104//89 105//89 109//89 108//89
f 105//90 106//90 110//90 109//90
f 106//91 107//91 111//91 110//91
f 107//92 104//92 108//92 111//92
o starboard_forward_light
v 0.752378 0.616918 -1.479378
v 2.932378 0.466918 -0.909379
v 0.759636 0.591408 -1.513852
v 2.939636 0.441408 -0.943853
v 0.753578 0.550133 -1.501544
v 2.933578 0.400132 -0.931544
v 0.742575 0.550133 -1.459462
v 2.922575 0.400132 -0.889462
v 0.741833 0.591408 -1.445763
v 2.921834 0.441408 -0.875763
vn 0.2007 0.8072 -0.5551
vn 0.2207 -0.3083 -0.9253
vn -0.0643 -0.9978 -0.0168
vn 0.9653 -0.0664 0.2524
vn -0.2604 -0.3083 0.9149
vn -0.0967 0.8072 0.5823
vn -0.9653 0.0664 -0.2524
vt 1.000000 0.500000
vt 1.000000 1.000000
vt 0.800000 1.000000
vt 0.800000 0.500000
vt 0.600000 1.000000
vt 0.600000 0.500000
vt 0.400000 1.000000
vt 0.400000 0.500000
vt 0.478254 0.324164
vt 0.250000 0.490000
vt 0.021746 0.324164
vt 0.108932 0.055836
vt 0.391068 0.055836
vt 0.200000 1.000000
vt 0.200000 0.500000
vt 0.000000 1.000000
vt 0.000000 0.500000
vt 0.750000 0.490000
vt 0.978254 0.324164
vt 0.891068 0.055836
vt 0.608932 0.055836
vt 0.521746 0.324164
s 0
usemtl Lights_|_electric_blue
f 112/45/93 113/46/93 115/47/93 114/48/93
f 114/48/94 115/47/94 117/49/94 116/50/94
f 116/50/95 117/49/95 119/51/95 118/52/95
f 115/53/96 113/54/96 121/55/96 119/56/96 117/57/96
f 118/52/97 119/51/97 121/58/97 120/59/97
f 120/59/98 121/58/98 113/60/98 112/61/98
f 112/62/99 114/63/99 116/64/99 118/65/99 120/66/99
o starboard_lower_nose_light
v 1.669880 0.322000 -0.740042
v 3.309880 0.332000 -0.170042
v 1.676832 0.306798 -0.759776
v 3.316832 0.316798 -0.189776
v 1.674342 0.282202 -0.752181
v 3.314342 0.292202 -0.182181
v 1.665852 0.282202 -0.727752
v 3.305851 0.292202 -0.157752
v 1.663094 0.306798 -0.720249
v 3.303094 0.316798 -0.150249
vn 0.1886 0.8090 -0.5567
vn 0.3139 -0.3090 -0.8978
vn 0.0054 -1.0000 0.0019
vn 0.9446 0.0058 0.3283
vn -0.3105 -0.3090 0.8989
vn -0.1974 0.8090 0.5537
vn -0.9446 -0.0058 -0.3283
vt 1.000000 0.500000
vt 1.000000 1.000000
vt 0.800000 1.000000
vt 0.800000 0.500000
vt 0.600000 1.000000
vt 0.600000 0.500000
vt 0.400000 1.000000
vt 0.400000 0.500000
vt 0.478254 0.324164
vt 0.250000 0.490000
vt 0.021746 0.324164
vt 0.108932 0.055836
vt 0.391068 0.055836
vt 0.200000 1.000000
vt 0.200000 0.500000
vt 0.000000 1.000000
vt 0.000000 0.500000
vt 0.750000 0.490000
vt 0.978254 0.324164
vt 0.891068 0.055836
vt 0.608932 0.055836
vt 0.521746 0.324164
s 0
usemtl Lights_|_electric_blue
f 122/67/100 123/68/100 125/69/100 124/70/100
f 124/70/101 125/69/101 127/71/101 126/72/101
f 126/72/102 127/71/102 129/73/102 128/74/102
f 125/75/103 123/76/103 131/77/103 129/78/103 127/79/103
f 128/74/104 129/73/104 131/80/104 130/81/104
f 130/81/105 131/80/105 123/82/105 122/83/105
f 122/84/106 124/85/106 126/86/106 128/87/106 130/88/106
o port_rear_upper_cowl
v -3.350000 0.680000 1.260000
v -3.350000 1.040000 1.260000
v -3.350000 1.130000 1.140000
v -3.350000 1.040000 1.020000
v -3.350000 0.680000 1.020000
v -2.760000 0.570000 1.450000
v -2.760000 1.060000 1.450000
v -2.760000 1.150000 1.100000
v -2.760000 1.060000 0.750000
v -2.760000 0.570000 0.750000
v -1.970000 0.510000 1.300000
v -1.970000 0.870000 1.300000
v -1.970000 0.960000 0.920000
v -1.970000 0.870000 0.540000
v -1.970000 0.510000 0.540000
v -1.260000 0.460000 0.820000
v -1.260000 0.550000 0.820000
v -1.260000 0.640000 0.690000
v -1.260000 0.550000 0.560000
v -1.260000 0.460000 0.560000
vn 1.0000 -0.0000 -0.0000
vn 0.3065 -0.0000 -0.9519
vn 0.0769 -0.9311 -0.3566
vn 0.1246 -0.9266 0.3549
vn 0.4161 -0.0000 0.9093
vn 0.1833 0.9831 -0.0000
vn -0.1865 -0.0000 -0.9824
vn -0.2728 -0.9341 -0.2303
vn -0.1718 -0.9565 0.2358
vn 0.2569 -0.0000 0.9664
vn 0.0757 0.9971 -0.0000
vn -0.5601 -0.0000 -0.8284
vn -0.5091 -0.8117 -0.2865
vn -0.3518 -0.8827 0.3115
vn -0.0282 -0.0000 0.9996
vn 0.0702 0.9975 -0.0000
vn -1.0000 -0.0000 -0.0000
s 0
usemtl Armor_|_violet
f 133//109 134//109 139//109 138//109
f 134//110 135//110 140//110 139//110
f 138//114 139//114 144//114 143//114
f 139//115 140//115 145//115 144//115
f 143//119 144//119 149//119 148//119
f 144//120 145//120 150//120 149//120
usemtl Armor_|_shadow_facets
f 136//107 135//107 134//107 133//107 132//107
f 132//108 133//108 138//108 137//108
f 135//111 136//111 141//111 140//111
f 136//112 132//112 137//112 141//112
f 137//113 138//113 143//113 142//113
f 140//116 141//116 146//116 145//116
f 141//117 137//117 142//117 146//117
f 142//118 143//118 148//118 147//118
f 145//121 146//121 151//121 150//121
f 146//122 142//122 147//122 151//122
f 147//123 148//123 149//123 150//123 151//123
o port_rear_outer_blade
v -3.780000 0.470000 1.590000
v -3.780000 0.710000 1.590000
v -3.780000 0.800000 1.570000
v -3.780000 0.710000 1.550000
v -3.780000 0.470000 1.550000
v -3.050000 0.450000 1.900000
v -3.050000 0.730000 1.900000
v -3.050000 0.820000 1.680000
v -3.050000 0.730000 1.460000
v -3.050000 0.450000 1.460000
v -2.310000 0.390000 1.910000
v -2.310000 0.590000 1.910000
v -2.310000 0.680000 1.640000
v -2.310000 0.590000 1.370000
v -2.310000 0.390000 1.370000
v -1.550000 0.380000 1.270000
v -1.550000 0.400000 1.270000
v -1.550000 0.490000 1.230000
v -1.550000 0.400000 1.190000
v -1.550000 0.380000 1.190000
vn 1.0000 -0.0000 -0.0000
vn 0.3909 -0.0000 -0.9204
vn 0.1909 -0.7853 -0.5890
vn 0.0137 -0.7999 0.5999
vn 0.1224 -0.0000 0.9925
vn 0.0274 0.9996 -0.0000
vn 0.0135 -0.0000 -0.9999
vn -0.1815 -0.9231 -0.3391
vn -0.1457 -0.9286 0.3411
vn 0.1207 -0.0000 0.9927
vn 0.0808 0.9967 -0.0000
vn -0.6441 -0.0000 -0.7649
vn -0.4906 -0.7535 -0.4375
vn -0.0213 -0.8646 0.5020
vn 0.2305 -0.0000 0.9731
vn 0.0132 0.9999 -0.0000
vn -1.0000 -0.0000 -0.0000
s 0
usemtl Armor_|_lit_facets
f 153//126 154//126 159//126 158//126
f 154//127 155//127 160//127 159//127
f 158//131 159//131 164//131 163//131
f 159//132 160//132 165//132 164//132
f 163//136 164//136 169//136 168//136
f 164//137 165//137 170//137 169//137
usemtl Armor_|_shadow_facets
f 156//124 155//124 154//124 153//124 152//124
f 152//125 153//125 158//125 157//125
f 155//128 156//128 161//128 160//128
f 156//129 152//129 157//129 161//129
f 157//130 158//130 163//130 162//130
f 160//133 161//133 166//133 165//133
f 161//134 157//134 162//134 166//134
f 162//135 163//135 168//135 167//135
f 165//138 166//138 171//138 170//138
f 166//139 162//139 167//139 171//139
f 167//140 168//140 169//140 170//140 171//140
o port_lower_hover_fin
v -3.200000 0.120000 1.510000
v -3.200000 0.120000 1.510000
v -3.200000 0.210000 1.470000
v -3.200000 0.120000 1.430000
v -3.200000 0.120000 1.430000
v -2.420000 0.100000 1.930000
v -2.420000 0.150000 1.930000
v -2.420000 0.240000 1.640000
v -2.420000 0.150000 1.350000
v -2.420000 0.100000 1.350000
v -1.520000 0.090000 1.880000
v -1.520000 0.110000 1.880000
v -1.520000 0.200000 1.640000
v -1.520000 0.110000 1.400000
v -1.520000 0.090000 1.400000
v -0.730000 0.140000 1.310000
v -0.730000 0.130000 1.310000
v -0.730000 0.220000 1.290000
v -0.730000 0.130000 1.270000
v -0.730000 0.140000 1.270000
vn 1.0000 -0.0000 -0.0000
vn 0.4741 -0.0000 -0.8805
vn 0.2101 -0.8583 -0.4682
vn 0.0061 -0.8779 0.4788
vn 0.1020 -0.0000 0.9948
vn 0.0256 0.9997 -0.0000
vn -0.0555 -0.0000 -0.9985
vn -0.0510 -0.9457 -0.3212
vn -0.0510 -0.9457 0.3212
vn -0.0555 -0.0000 0.9985
vn 0.0111 0.9999 -0.0000
vn -0.5851 -0.0000 -0.8109
vn -0.2966 -0.7852 -0.5436
vn 0.1902 -0.8072 0.5588
vn 0.1624 -0.0000 0.9867
vn -0.0632 0.9980 -0.0000
vn -1.0000 -0.0000 -0.0000
s 0
usemtl Armor_|_violet
f 173//143 174//143 179//143 178//143
f 174//144 175//144 180//144 179//144
f 178//148 179//148 184//148 183//148
f 179//149 180//149 185//149 184//149
f 183//153 184//153 189//153 188//153
f 184//154 185//154 190//154 189//154
usemtl Armor_|_shadow_facets
f 176//141 175//141 174//141 173//141 172//141
f 172//142 173//142 178//142 177//142
f 175//145 176//145 181//145 180//145
f 176//146 172//146 177//146 181//146
f 177//147 178//147 183//147 182//147
f 180//150 181//150 186//150 185//150
f 181//151 177//151 182//151 186//151
f 182//152 183//152 188//152 187//152
f 185//155 186//155 191//155 190//155
f 186//156 182//156 187//156 191//156
f 187//157 188//157 189//157 190//157 191//157
o port_rear_cowl_light
v -3.196524 0.769798 1.309971
v -1.996524 0.629798 1.299971
v -3.199163 0.749208 1.281460
v -1.999164 0.609208 1.271460
v -3.202959 0.715893 1.292390
v -2.002959 0.575893 1.282390
v -3.202665 0.715893 1.327656
v -2.002665 0.575893 1.317656
v -3.198688 0.749208 1.338522
v -1.998688 0.609208 1.328522
vn 0.0888 0.8036 -0.5885
vn -0.0437 -0.3069 -0.9507
vn -0.1159 -0.9933 0.0010
vn 0.9932 -0.1159 -0.0083
vn -0.0279 -0.3069 0.9513
vn 0.0986 0.8036 0.5870
vn -0.9932 0.1159 0.0083
vt 1.000000 0.500000
vt 1.000000 1.000000
vt 0.800000 1.000000
vt 0.800000 0.500000
vt 0.600000 1.000000
vt 0.600000 0.500000
vt 0.400000 1.000000
vt 0.400000 0.500000
vt 0.478254 0.324164
vt 0.250000 0.490000
vt 0.021746 0.324164
vt 0.108932 0.055836
vt 0.391068 0.055836
vt 0.200000 1.000000
vt 0.200000 0.500000
vt 0.000000 1.000000
vt 0.000000 0.500000
vt 0.750000 0.490000
vt 0.978254 0.324164
vt 0.891068 0.055836
vt 0.608932 0.055836
vt 0.521746 0.324164
s 0
usemtl Lights_|_violet_blue
f 192/89/158 193/90/158 195/91/158 194/92/158
f 194/92/159 195/91/159 197/93/159 196/94/159
f 196/94/160 197/93/160 199/95/160 198/96/160
f 195/97/161 193/98/161 201/99/161 199/100/161 197/101/161
f 198/96/162 199/95/162 201/102/162 200/103/162
f 200/103/163 201/102/163 193/104/163 192/105/163
f 192/106/164 194/107/164 196/108/164 198/109/164 200/110/164
o port_hover_fin_light
v -2.999837 0.213999 1.480020
v -1.549837 0.203999 1.660020
v -2.997138 0.197416 1.457355
v -1.547138 0.187416 1.637355
v -2.998394 0.170584 1.465984
v -1.548394 0.160584 1.645984
v -3.001870 0.170584 1.493983
v -1.551870 0.160584 1.673983
v -3.002762 0.197416 1.502658
v -1.552762 0.187416 1.682658
vn 0.0779 0.8090 -0.5826
vn 0.1151 -0.3090 -0.9441
vn -0.0068 -1.0000 -0.0008
vn 0.9924 -0.0068 0.1232
vn -0.1193 -0.3090 0.9436
vn -0.0669 0.8090 0.5840
vn -0.9924 0.0068 -0.1232
vt 1.000000 0.500000
vt 1.000000 1.000000
vt 0.800000 1.000000
vt 0.800000 0.500000
vt 0.600000 1.000000
vt 0.600000 0.500000
vt 0.400000 1.000000
vt 0.400000 0.500000
vt 0.478254 0.324164
vt 0.250000 0.490000
vt 0.021746 0.324164
vt 0.108932 0.055836
vt 0.391068 0.055836
vt 0.200000 1.000000
vt 0.200000 0.500000
vt 0.000000 1.000000
vt 0.000000 0.500000
vt 0.750000 0.490000
vt 0.978254 0.324164
vt 0.891068 0.055836
vt 0.608932 0.055836
vt 0.521746 0.324164
s 0
usemtl Lights_|_electric_blue
f 202/111/165 203/112/165 205/113/165 204/114/165
f 204/114/166 205/113/166 207/115/166 206/116/166
f 206/116/167 207/115/167 209/117/167 208/118/167
f 205/119/168 203/120/168 211/121/168 209/122/168 207/123/168
f 208/118/169 209/117/169 211/124/169 210/125/169
f 210/125/170 211/124/170 203/126/170 202/127/170
f 202/128/171 204/129/171 206/130/171 208/131/171 210/132/171
o port_spine_rail
v -2.009798 0.586999 0.610000
v 0.310202 0.577000 0.610000
v -2.009899 0.563500 0.569297
v 0.310101 0.553500 0.569297
v -2.010101 0.516500 0.569297
v 0.309899 0.506500 0.569297
v -2.010202 0.493000 0.610000
v 0.309797 0.483000 0.610000
v -2.010101 0.516500 0.650703
v 0.309899 0.506500 0.650703
v -2.009899 0.563500 0.650703
v 0.310101 0.553500 0.650703
vn 0.0037 0.8660 -0.5000
vn -0.0000 -0.0000 -1.0000
vn -0.0037 -0.8660 -0.5000
vn -0.0037 -0.8660 0.5000
vn 1.0000 -0.0043 -0.0000
vn -0.0000 -0.0000 1.0000
vn 0.0037 0.8660 0.5000
vn -1.0000 0.0043 -0.0000
vt 1.000000 0.500000
vt 1.000000 1.000000
vt 0.833333 1.000000
vt 0.833333 0.500000
vt 0.666667 1.000000
vt 0.666667 0.500000
vt 0.500000 1.000000
vt 0.500000 0.500000
vt 0.333333 1.000000
vt 0.333333 0.500000
vt 0.457846 0.370000
vt 0.250000 0.490000
vt 0.042154 0.370000
vt 0.042154 0.130000
vt 0.250000 0.010000
vt 0.457846 0.130000
vt 0.166667 1.000000
vt 0.166667 0.500000
vt -0.000000 1.000000
vt -0.000000 0.500000
vt 0.750000 0.490000
vt 0.957846 0.370000
vt 0.957846 0.130000
vt 0.750000 0.010000
vt 0.542154 0.130000
vt 0.542154 0.370000
s 0
usemtl Frame_|_gunmetal
f 212/133/172 213/134/172 215/135/172 214/136/172
f 214/136/173 215/135/173 217/137/173 216/138/173
f 216/138/174 217/137/174 219/139/174 218/140/174
f 218/140/175 219/139/175 221/141/175 220/142/175
f 215/143/176 213/144/176 223/145/176 221/146/176 219/147/176 217/148/176
f 220/142/177 221/141/177 223/149/177 222/150/177
f 222/150/178 223/149/178 213/151/178 212/152/178
f 212/153/179 214/154/179 216/155/179 218/156/179 220/157/179 222/158/179
o port_exposed_thruster
v -3.460000 0.680000 0.670000
v -2.480000 0.680000 0.670000
v -3.460000 0.624350 0.535650
v -2.480000 0.624350 0.535650
v -3.460000 0.490000 0.480000
v -2.480000 0.490000 0.480000
v -3.460000 0.355650 0.535650
v -2.480000 0.355650 0.535650
v -3.460000 0.300000 0.670000
v -2.480000 0.300000 0.670000
v -3.460000 0.355650 0.804350
v -2.480000 0.355650 0.804350
v -3.460000 0.490000 0.860000
v -2.480000 0.490000 0.860000
v -3.460000 0.624350 0.804350
v -2.480000 0.624350 0.804350
vn -0.0000 0.9239 -0.3827
vn -0.0000 0.3827 -0.9239
vn -0.0000 -0.3827 -0.9239
vn -0.0000 -0.9239 -0.3827
vn -0.0000 -0.9239 0.3827
vn -0.0000 -0.3827 0.9239
vn 1.0000 -0.0000 -0.0000
vn -0.0000 0.3827 0.9239
vn -0.0000 0.9239 0.3827
vn -1.0000 -0.0000 -0.0000
vt 1.000000 0.500000
vt 1.000000 1.000000
vt 0.875000 1.000000
vt 0.875000 0.500000
vt 0.750000 1.000000
vt 0.750000 0.500000
vt 0.625000 1.000000
vt 0.625000 0.500000
vt 0.500000 1.000000
vt 0.500000 0.500000
vt 0.375000 1.000000
vt 0.375000 0.500000
vt 0.250000 1.000000
vt 0.250000 0.500000
vt 0.419706 0.419706
vt 0.250000 0.490000
vt 0.080294 0.419706
vt 0.010000 0.250000
vt 0.080294 0.080294
vt 0.250000 0.010000
vt 0.419706 0.080294
vt 0.490000 0.250000
vt 0.125000 1.000000
vt 0.125000 0.500000
vt 0.000000 1.000000
vt 0.000000 0.500000
vt 0.750000 0.490000
vt 0.919706 0.419706
vt 0.990000 0.250000
vt 0.919706 0.080294
vt 0.750000 0.010000
vt 0.580294 0.080294
vt 0.510000 0.250000
vt 0.580294 0.419706
s 0
usemtl Frame_|_gunmetal
f 224/159/180 225/160/180 227/161/180 226/162/180
f 226/162/181 227/161/181 229/163/181 228/164/181
f 228/164/182 229/163/182 231/165/182 230/166/182
f 230/166/183 231/165/183 233/167/183 232/168/183
f 232/168/184 233/167/184 235/169/184 234/170/184
f 234/170/185 235/169/185 237/171/185 236/172/185
f 227/173/186 225/174/186 239/175/186 237/176/186 235/177/186 233/178/186 231/179/186 229/180/186
f 236/172/187 237/171/187 239/181/187 238/182/187
f 238/182/188 239/181/188 225/183/188 224/184/188
f 224/185/189 226/186/189 228/187/189 230/188/189 232/189/189 234/190/189 236/191/189 238/192/189
o port_thruster_blue_core
v -3.490000 0.608000 0.670000
v -3.580000 0.608000 0.670000
v -3.490000 0.573439 0.753439
v -3.580000 0.573439 0.753439
v -3.490000 0.490000 0.788000
v -3.580000 0.490000 0.788000
v -3.490000 0.406561 0.753439
v -3.580000 0.406561 0.753439
v -3.490000 0.372000 0.670000
v -3.580000 0.372000 0.670000
v -3.490000 0.406561 0.586561
v -3.580000 0.406561 0.586561
v -3.490000 0.490000 0.552000
v -3.580000 0.490000 0.552000
v -3.490000 0.573439 0.586561
v -3.580000 0.573439 0.586561
vn -0.0000 0.9239 0.3827
vn -0.0000 0.3827 0.9239
vn -0.0000 -0.3827 0.9239
vn -0.0000 -0.9239 0.3827
vn -0.0000 -0.9239 -0.3827
vn -0.0000 -0.3827 -0.9239
vn -1.0000 -0.0000 -0.0000
vn -0.0000 0.3827 -0.9239
vn -0.0000 0.9239 -0.3827
vn 1.0000 -0.0000 -0.0000
vt 1.000000 0.500000
vt 1.000000 1.000000
vt 0.875000 1.000000
vt 0.875000 0.500000
vt 0.750000 1.000000
vt 0.750000 0.500000
vt 0.625000 1.000000
vt 0.625000 0.500000
vt 0.500000 1.000000
vt 0.500000 0.500000
vt 0.375000 1.000000
vt 0.375000 0.500000
vt 0.250000 1.000000
vt 0.250000 0.500000
vt 0.419706 0.419706
vt 0.250000 0.490000
vt 0.080294 0.419706
vt 0.010000 0.250000
vt 0.080294 0.080294
vt 0.250000 0.010000
vt 0.419706 0.080294
vt 0.490000 0.250000
vt 0.125000 1.000000
vt 0.125000 0.500000
vt 0.000000 1.000000
vt 0.000000 0.500000
vt 0.750000 0.490000
vt 0.919706 0.419706
vt 0.990000 0.250000
vt 0.919706 0.080294
vt 0.750000 0.010000
vt 0.580294 0.080294
vt 0.510000 0.250000
vt 0.580294 0.419706
s 0
usemtl Lights_|_violet_blue
f 240/193/190 241/194/190 243/195/190 242/196/190
f 242/196/191 243/195/191 245/197/191 244/198/191
f 244/198/192 245/197/192 247/199/192 246/200/192
f 246/200/193 247/199/193 249/201/193 248/202/193
f 248/202/194 249/201/194 251/203/194 250/204/194
f 250/204/195 251/203/195 253/205/195 252/206/195
f 243/207/196 241/208/196 255/209/196 253/210/196 251/211/196 249/212/196 247/213/196 245/214/196
f 252/206/197 253/205/197 255/215/197 254/216/197
f 254/216/198 255/215/198 241/217/198 240/218/198
f 240/219/199 242/220/199 244/221/199 246/222/199 248/223/199 250/224/199 252/225/199 254/226/199
o port_engine_strut
v -2.934580 0.694574 0.819458
v -1.734580 0.504573 0.699458
v -2.941638 0.670684 0.786711
v -1.741637 0.480684 0.666711
v -2.946432 0.632029 0.799968
v -1.746432 0.442029 0.679968
v -2.942338 0.632029 0.840909
v -1.742338 0.442029 0.720909
v -2.935013 0.670684 0.852954
v -1.735013 0.480684 0.732954
vn 0.0668 0.7992 -0.5974
vn -0.1425 -0.3053 -0.9416
vn -0.1549 -0.9878 0.0155
vn 0.9829 -0.1556 -0.0983
vn 0.0468 -0.3053 0.9511
vn 0.1838 0.7992 0.5723
vn -0.9829 0.1556 0.0983
vt 1.000000 0.500000
vt 1.000000 1.000000
vt 0.800000 1.000000
vt 0.800000 0.500000
vt 0.600000 1.000000
vt 0.600000 0.500000
vt 0.400000 1.000000
vt 0.400000 0.500000
vt 0.478254 0.324164
vt 0.250000 0.490000
vt 0.021746 0.324164
vt 0.108932 0.055836
vt 0.391068 0.055836
vt 0.200000 1.000000
vt 0.200000 0.500000
vt 0.000000 1.000000
vt 0.000000 0.500000
vt 0.750000 0.490000
vt 0.978254 0.324164
vt 0.891068 0.055836
vt 0.608932 0.055836
vt 0.521746 0.324164
s 0
usemtl Frame_|_charcoal
f 256/227/200 257/228/200 259/229/200 258/230/200
f 258/230/201 259/229/201 261/231/201 260/232/201
f 260/232/202 261/231/202 263/233/202 262/234/202
f 259/235/203 257/236/203 265/237/203 263/238/203 261/239/203
f 262/234/204 263/233/204 265/240/204 264/241/204
f 264/241/205 265/240/205 257/242/205 256/243/205
f 256/244/206 258/245/206 260/246/206 262/247/206 264/248/206
o port_engine_strut.001
v -2.934580 0.694574 0.519458
v -1.734580 0.504574 0.399458
v -2.941638 0.670684 0.486711
v -1.741637 0.480684 0.366711
v -2.946432 0.632029 0.499968
v -1.746432 0.442029 0.379968
v -2.942338 0.632029 0.540909
v -1.742338 0.442029 0.420909
v -2.935013 0.670684 0.552954
v -1.735013 0.480684 0.432954
vn 0.0668 0.7992 -0.5974
vn -0.1425 -0.3053 -0.9416
vn -0.1549 -0.9878 0.0155
vn 0.9829 -0.1556 -0.0983
vn 0.0468 -0.3053 0.9511
vn 0.1838 0.7992 0.5723
vn -0.9829 0.1556 0.0983
vt 1.000000 0.500000
vt 1.000000 1.000000
vt 0.800000 1.000000
vt 0.800000 0.500000
vt 0.600000 1.000000
vt 0.600000 0.500000
vt 0.400000 1.000000
vt 0.400000 0.500000
vt 0.478254 0.324164
vt 0.250000 0.490000
vt 0.021746 0.324164
vt 0.108932 0.055836
vt 0.391068 0.055836
vt 0.200000 1.000000
vt 0.200000 0.500000
vt 0.000000 1.000000
vt 0.000000 0.500000
vt 0.750000 0.490000
vt 0.978254 0.324164
vt 0.891068 0.055836
vt 0.608932 0.055836
vt 0.521746 0.324164
s 0
usemtl Frame_|_charcoal
f 266/249/207 267/250/207 269/251/207 268/252/207
f 268/252/208 269/251/208 271/253/208 270/254/208
f 270/254/209 271/253/209 273/255/209 272/256/209
f 269/257/210 267/258/210 275/259/210 273/260/210 271/261/210
f 272/256/211 273/255/211 275/262/211 274/263/211
f 274/263/212 275/262/212 267/264/212 266/265/212
f 266/266/213 268/267/213 270/268/213 272/269/213 274/270/213
o starboard_rear_upper_cowl
v -3.350000 0.680000 -1.020000
v -3.350000 1.040000 -1.020000
v -3.350000 1.130000 -1.140000
v -3.350000 1.040000 -1.260000
v -3.350000 0.680000 -1.260000
v -2.760000 0.570000 -0.750000
v -2.760000 1.060000 -0.750000
v -2.760000 1.150000 -1.100000
v -2.760000 1.060000 -1.450000
v -2.760000 0.570000 -1.450000
v -1.970000 0.510000 -0.540000
v -1.970000 0.870000 -0.540000
v -1.970000 0.960000 -0.920000
v -1.970000 0.870000 -1.300000
v -1.970000 0.510000 -1.300000
v -1.260000 0.460000 -0.560000
v -1.260000 0.550000 -0.560000
v -1.260000 0.640000 -0.690000
v -1.260000 0.550000 -0.820000
v -1.260000 0.460000 -0.820000
vn 1.0000 -0.0000 -0.0000
vn 0.4161 -0.0000 -0.9093
vn 0.1246 -0.9266 -0.3549
vn 0.0769 -0.9311 0.3566
vn 0.3065 -0.0000 0.9519
vn 0.1833 0.9831 -0.0000
vn 0.2569 -0.0000 -0.9664
vn -0.1718 -0.9565 -0.2358
vn -0.2728 -0.9341 0.2303
vn -0.1865 -0.0000 0.9824
vn 0.0757 0.9971 -0.0000
vn -0.0282 -0.0000 -0.9996
vn -0.3518 -0.8827 -0.3115
vn -0.5091 -0.8117 0.2865
vn -0.5601 -0.0000 0.8284
vn 0.0702 0.9975 -0.0000
vn -1.0000 -0.0000 -0.0000
s 0
usemtl Armor_|_violet
f 277//216 278//216 283//216 282//216
f 278//217 279//217 284//217 283//217
f 282//221 283//221 288//221 287//221
f 283//222 284//222 289//222 288//222
f 287//226 288//226 293//226 292//226
f 288//227 289//227 294//227 293//227
usemtl Armor_|_shadow_facets
f 280//214 279//214 278//214 277//214 276//214
f 276//215 277//215 282//215 281//215
f 279//218 280//218 285//218 284//218
f 280//219 276//219 281//219 285//219
f 281//220 282//220 287//220 286//220
f 284//223 285//223 290//223 289//223
f 285//224 281//224 286//224 290//224
f 286//225 287//225 292//225 291//225
f 289//228 290//228 295//228 294//228
f 290//229 286//229 291//229 295//229
f 291//230 292//230 293//230 294//230 295//230
o starboard_rear_outer_blade
v -3.780000 0.470000 -1.550000
v -3.780000 0.710000 -1.550000
v -3.780000 0.800000 -1.570000
v -3.780000 0.710000 -1.590000
v -3.780000 0.470000 -1.590000
v -3.050000 0.450000 -1.460000
v -3.050000 0.730000 -1.460000
v -3.050000 0.820000 -1.680000
v -3.050000 0.730000 -1.900000
v -3.050000 0.450000 -1.900000
v -2.310000 0.390000 -1.370000
v -2.310000 0.590000 -1.370000
v -2.310000 0.680000 -1.640000
v -2.310000 0.590000 -1.910000
v -2.310000 0.390000 -1.910000
v -1.550000 0.380000 -1.190000
v -1.550000 0.400000 -1.190000
v -1.550000 0.490000 -1.230000
v -1.550000 0.400000 -1.270000
v -1.550000 0.380000 -1.270000
vn 1.0000 -0.0000 -0.0000
vn 0.1224 -0.0000 -0.9925
vn 0.0137 -0.7999 -0.5999
vn 0.1909 -0.7853 0.5890
vn 0.3909 -0.0000 0.9204
vn 0.0274 0.9996 -0.0000
vn 0.1207 -0.0000 -0.9927
vn -0.1457 -0.9286 -0.3411
vn -0.1815 -0.9231 0.3391
vn 0.0135 -0.0000 0.9999
vn 0.0808 0.9967 -0.0000
vn 0.2305 -0.0000 -0.9731
vn -0.0213 -0.8646 -0.5020
vn -0.4906 -0.7535 0.4375
vn -0.6441 -0.0000 0.7649
vn 0.0132 0.9999 -0.0000
vn -1.0000 -0.0000 -0.0000
s 0
usemtl Armor_|_lit_facets
f 297//233 298//233 303//233 302//233
f 298//234 299//234 304//234 303//234
f 302//238 303//238 308//238 307//238
f 303//239 304//239 309//239 308//239
f 307//243 308//243 313//243 312//243
f 308//244 309//244 314//244 313//244
usemtl Armor_|_shadow_facets
f 300//231 299//231 298//231 297//231 296//231
f 296//232 297//232 302//232 301//232
f 299//235 300//235 305//235 304//235
f 300//236 296//236 301//236 305//236
f 301//237 302//237 307//237 306//237
f 304//240 305//240 310//240 309//240
f 305//241 301//241 306//241 310//241
f 306//242 307//242 312//242 311//242
f 309//245 310//245 315//245 314//245
f 310//246 306//246 311//246 315//246
f 311//247 312//247 313//247 314//247 315//247
o starboard_lower_hover_fin
v -3.200000 0.120000 -1.430000
v -3.200000 0.120000 -1.430000
v -3.200000 0.210000 -1.470000
v -3.200000 0.120000 -1.510000
v -3.200000 0.120000 -1.510000
v -2.420000 0.100000 -1.350000
v -2.420000 0.150000 -1.350000
v -2.420000 0.240000 -1.640000
v -2.420000 0.150000 -1.930000
v -2.420000 0.100000 -1.930000
v -1.520000 0.090000 -1.400000
v -1.520000 0.110000 -1.400000
v -1.520000 0.200000 -1.640000
v -1.520000 0.110000 -1.880000
v -1.520000 0.090000 -1.880000
v -0.730000 0.140000 -1.270000
v -0.730000 0.130000 -1.270000
v -0.730000 0.220000 -1.290000
v -0.730000 0.130000 -1.310000
v -0.730000 0.140000 -1.310000
vn 1.0000 -0.0000 -0.0000
vn 0.1020 -0.0000 -0.9948
vn 0.0061 -0.8779 -0.4788
vn 0.2101 -0.8583 0.4682
vn 0.4741 -0.0000 0.8805
vn 0.0256 0.9997 -0.0000
vn -0.0555 -0.0000 -0.9985
vn -0.0510 -0.9457 -0.3212
vn -0.0510 -0.9457 0.3212
vn -0.0555 -0.0000 0.9985
vn 0.0111 0.9999 -0.0000
vn 0.1624 -0.0000 -0.9867
vn 0.1902 -0.8072 -0.5588
vn -0.2966 -0.7852 0.5436
vn -0.5851 -0.0000 0.8109
vn -0.0632 0.9980 -0.0000
vn -1.0000 -0.0000 -0.0000
s 0
usemtl Armor_|_violet
f 317//250 318//250 323//250 322//250
f 318//251 319//251 324//251 323//251
f 322//255 323//255 328//255 327//255
f 323//256 324//256 329//256 328//256
f 327//260 328//260 333//260 332//260
f 328//261 329//261 334//261 333//261
usemtl Armor_|_shadow_facets
f 320//248 319//248 318//248 317//248 316//248
f 316//249 317//249 322//249 321//249
f 319//252 320//252 325//252 324//252
f 320//253 316//253 321//253 325//253
f 321//254 322//254 327//254 326//254
f 324//257 325//257 330//257 329//257
f 325//258 321//258 326//258 330//258
f 326//259 327//259 332//259 331//259
f 329//262 330//262 335//262 334//262
f 330//263 326//263 331//263 335//263
f 331//264 332//264 333//264 334//264 335//264
o starboard_rear_cowl_light
v -3.196524 0.769798 -1.309971
v -1.996524 0.629798 -1.299971
v -3.198688 0.749208 -1.338522
v -1.998688 0.609208 -1.328522
v -3.202665 0.715893 -1.327656
v -2.002665 0.575893 -1.317656
v -3.202959 0.715893 -1.292390
v -2.002959 0.575893 -1.282390
v -3.199163 0.749208 -1.281460
v -1.999164 0.609208 -1.271460
vn 0.0986 0.8036 -0.5870
vn -0.0279 -0.3069 -0.9513
vn -0.1159 -0.9933 -0.0010
vn 0.9932 -0.1159 0.0083
vn -0.0437 -0.3069 0.9507
vn 0.0888 0.8036 0.5885
vn -0.9932 0.1159 -0.0083
vt 1.000000 0.500000
vt 1.000000 1.000000
vt 0.800000 1.000000
vt 0.800000 0.500000
vt 0.600000 1.000000
vt 0.600000 0.500000
vt 0.400000 1.000000
vt 0.400000 0.500000
vt 0.478254 0.324164
vt 0.250000 0.490000
vt 0.021746 0.324164
vt 0.108932 0.055836
vt 0.391068 0.055836
vt 0.200000 1.000000
vt 0.200000 0.500000
vt 0.000000 1.000000
vt 0.000000 0.500000
vt 0.750000 0.490000
vt 0.978254 0.324164
vt 0.891068 0.055836
vt 0.608932 0.055836
vt 0.521746 0.324164
s 0
usemtl Lights_|_violet_blue
f 336/271/265 337/272/265 339/273/265 338/274/265
f 338/274/266 339/273/266 341/275/266 340/276/266
f 340/276/267 341/275/267 343/277/267 342/278/267
f 339/279/268 337/280/268 345/281/268 343/282/268 341/283/268
f 342/278/269 343/277/269 345/284/269 344/285/269
f 344/285/270 345/284/270 337/286/270 336/287/270
f 336/288/271 338/289/271 340/290/271 342/291/271 344/292/271
o starboard_hover_fin_light
v -2.999837 0.213999 -1.480020
v -1.549837 0.203999 -1.660020
v -3.002762 0.197416 -1.502658
v -1.552762 0.187416 -1.682658
v -3.001870 0.170584 -1.493983
v -1.551870 0.160584 -1.673983
v -2.998394 0.170584 -1.465984
v -1.548394 0.160584 -1.645984
v -2.997138 0.197416 -1.457355
v -1.547138 0.187416 -1.637355
vn -0.0669 0.8090 -0.5840
vn -0.1193 -0.3090 -0.9436
vn -0.0068 -1.0000 0.0008
vn 0.9924 -0.0068 -0.1232
vn 0.1151 -0.3090 0.9441
vn 0.0779 0.8090 0.5826
vn -0.9924 0.0068 0.1232
vt 1.000000 0.500000
vt 1.000000 1.000000
vt 0.800000 1.000000
vt 0.800000 0.500000
vt 0.600000 1.000000
vt 0.600000 0.500000
vt 0.400000 1.000000
vt 0.400000 0.500000
vt 0.478254 0.324164
vt 0.250000 0.490000
vt 0.021746 0.324164
vt 0.108932 0.055836
vt 0.391068 0.055836
vt 0.200000 1.000000
vt 0.200000 0.500000
vt 0.000000 1.000000
vt 0.000000 0.500000
vt 0.750000 0.490000
vt 0.978254 0.324164
vt 0.891068 0.055836
vt 0.608932 0.055836
vt 0.521746 0.324164
s 0
usemtl Lights_|_electric_blue
f 346/293/272 347/294/272 349/295/272 348/296/272
f 348/296/273 349/295/273 351/297/273 350/298/273
f 350/298/274 351/297/274 353/299/274 352/300/274
f 349/301/275 347/302/275 355/303/275 353/304/275 351/305/275
f 352/300/276 353/299/276 355/306/276 354/307/276
f 354/307/277 355/306/277 347/308/277 346/309/277
f 346/310/278 348/311/278 350/312/278 352/313/278 354/314/278
o starboard_spine_rail
v -2.009798 0.586999 -0.610000
v 0.310202 0.577000 -0.610000
v -2.009899 0.563500 -0.650703
v 0.310101 0.553500 -0.650703
v -2.010101 0.516500 -0.650703
v 0.309899 0.506500 -0.650703
v -2.010202 0.493000 -0.610000
v 0.309797 0.483000 -0.610000
v -2.010101 0.516500 -0.569297
v 0.309899 0.506500 -0.569297
v -2.009899 0.563500 -0.569297
v 0.310101 0.553500 -0.569297
vn 0.0037 0.8660 -0.5000
vn -0.0000 -0.0000 -1.0000
vn -0.0037 -0.8660 -0.5000
vn -0.0037 -0.8660 0.5000
vn 1.0000 -0.0043 -0.0000
vn -0.0000 -0.0000 1.0000
vn 0.0037 0.8660 0.5000
vn -1.0000 0.0043 -0.0000
vt 1.000000 0.500000
vt 1.000000 1.000000
vt 0.833333 1.000000
vt 0.833333 0.500000
vt 0.666667 1.000000
vt 0.666667 0.500000
vt 0.500000 1.000000
vt 0.500000 0.500000
vt 0.333333 1.000000
vt 0.333333 0.500000
vt 0.457846 0.370000
vt 0.250000 0.490000
vt 0.042154 0.370000
vt 0.042154 0.130000
vt 0.250000 0.010000
vt 0.457846 0.130000
vt 0.166667 1.000000
vt 0.166667 0.500000
vt -0.000000 1.000000
vt -0.000000 0.500000
vt 0.750000 0.490000
vt 0.957846 0.370000
vt 0.957846 0.130000
vt 0.750000 0.010000
vt 0.542154 0.130000
vt 0.542154 0.370000
s 0
usemtl Frame_|_gunmetal
f 356/315/279 357/316/279 359/317/279 358/318/279
f 358/318/280 359/317/280 361/319/280 360/320/280
f 360/320/281 361/319/281 363/321/281 362/322/281
f 362/322/282 363/321/282 365/323/282 364/324/282
f 359/325/283 357/326/283 367/327/283 365/328/283 363/329/283 361/330/283
f 364/324/284 365/323/284 367/331/284 366/332/284
f 366/332/285 367/331/285 357/333/285 356/334/285
f 356/335/286 358/336/286 360/337/286 362/338/286 364/339/286 366/340/286
o starboard_exposed_thruster
v -3.460000 0.680000 -0.670000
v -2.480000 0.680000 -0.670000
v -3.460000 0.624350 -0.804350
v -2.480000 0.624350 -0.804350
v -3.460000 0.490000 -0.860000
v -2.480000 0.490000 -0.860000
v -3.460000 0.355650 -0.804350
v -2.480000 0.355650 -0.804350
v -3.460000 0.300000 -0.670000
v -2.480000 0.300000 -0.670000
v -3.460000 0.355650 -0.535650
v -2.480000 0.355650 -0.535650
v -3.460000 0.490000 -0.480000
v -2.480000 0.490000 -0.480000
v -3.460000 0.624350 -0.535650
v -2.480000 0.624350 -0.535650
vn -0.0000 0.9239 -0.3827
vn -0.0000 0.3827 -0.9239
vn -0.0000 -0.3827 -0.9239
vn -0.0000 -0.9239 -0.3827
vn -0.0000 -0.9239 0.3827
vn -0.0000 -0.3827 0.9239
vn 1.0000 -0.0000 -0.0000
vn -0.0000 0.3827 0.9239
vn -0.0000 0.9239 0.3827
vn -1.0000 -0.0000 -0.0000
vt 1.000000 0.500000
vt 1.000000 1.000000
vt 0.875000 1.000000
vt 0.875000 0.500000
vt 0.750000 1.000000
vt 0.750000 0.500000
vt 0.625000 1.000000
vt 0.625000 0.500000
vt 0.500000 1.000000
vt 0.500000 0.500000
vt 0.375000 1.000000
vt 0.375000 0.500000
vt 0.250000 1.000000
vt 0.250000 0.500000
vt 0.419706 0.419706
vt 0.250000 0.490000
vt 0.080294 0.419706
vt 0.010000 0.250000
vt 0.080294 0.080294
vt 0.250000 0.010000
vt 0.419706 0.080294
vt 0.490000 0.250000
vt 0.125000 1.000000
vt 0.125000 0.500000
vt 0.000000 1.000000
vt 0.000000 0.500000
vt 0.750000 0.490000
vt 0.919706 0.419706
vt 0.990000 0.250000
vt 0.919706 0.080294
vt 0.750000 0.010000
vt 0.580294 0.080294
vt 0.510000 0.250000
vt 0.580294 0.419706
s 0
usemtl Frame_|_gunmetal
f 368/341/287 369/342/287 371/343/287 370/344/287
f 370/344/288 371/343/288 373/345/288 372/346/288
f 372/346/289 373/345/289 375/347/289 374/348/289
f 374/348/290 375/347/290 377/349/290 376/350/290
f 376/350/291 377/349/291 379/351/291 378/352/291
f 378/352/292 379/351/292 381/353/292 380/354/292
f 371/355/293 369/356/293 383/357/293 381/358/293 379/359/293 377/360/293 375/361/293 373/362/293
f 380/354/294 381/353/294 383/363/294 382/364/294
f 382/364/295 383/363/295 369/365/295 368/366/295
f 368/367/296 370/368/296 372/369/296 374/370/296 376/371/296 378/372/296 380/373/296 382/374/296
o starboard_thruster_blue_core
v -3.490000 0.608000 -0.670000
v -3.580000 0.608000 -0.670000
v -3.490000 0.573439 -0.586561
v -3.580000 0.573439 -0.586561
v -3.490000 0.490000 -0.552000
v -3.580000 0.490000 -0.552000
v -3.490000 0.406561 -0.586561
v -3.580000 0.406561 -0.586561
v -3.490000 0.372000 -0.670000
v -3.580000 0.372000 -0.670000
v -3.490000 0.406561 -0.753439
v -3.580000 0.406561 -0.753439
v -3.490000 0.490000 -0.788000
v -3.580000 0.490000 -0.788000
v -3.490000 0.573439 -0.753439
v -3.580000 0.573439 -0.753439
vn -0.0000 0.9239 0.3827
vn -0.0000 0.3827 0.9239
vn -0.0000 -0.3827 0.9239
vn -0.0000 -0.9239 0.3827
vn -0.0000 -0.9239 -0.3827
vn -0.0000 -0.3827 -0.9239
vn -1.0000 -0.0000 -0.0000
vn -0.0000 0.3827 -0.9239
vn -0.0000 0.9239 -0.3827
vn 1.0000 -0.0000 -0.0000
vt 1.000000 0.500000
vt 1.000000 1.000000
vt 0.875000 1.000000
vt 0.875000 0.500000
vt 0.750000 1.000000
vt 0.750000 0.500000
vt 0.625000 1.000000
vt 0.625000 0.500000
vt 0.500000 1.000000
vt 0.500000 0.500000
vt 0.375000 1.000000
vt 0.375000 0.500000
vt 0.250000 1.000000
vt 0.250000 0.500000
vt 0.419706 0.419706
vt 0.250000 0.490000
vt 0.080294 0.419706
vt 0.010000 0.250000
vt 0.080294 0.080294
vt 0.250000 0.010000
vt 0.419706 0.080294
vt 0.490000 0.250000
vt 0.125000 1.000000
vt 0.125000 0.500000
vt 0.000000 1.000000
vt 0.000000 0.500000
vt 0.750000 0.490000
vt 0.919706 0.419706
vt 0.990000 0.250000
vt 0.919706 0.080294
vt 0.750000 0.010000
vt 0.580294 0.080294
vt 0.510000 0.250000
vt 0.580294 0.419706
s 0
usemtl Lights_|_violet_blue
f 384/375/297 385/376/297 387/377/297 386/378/297
f 386/378/298 387/377/298 389/379/298 388/380/298
f 388/380/299 389/379/299 391/381/299 390/382/299
f 390/382/300 391/381/300 393/383/300 392/384/300
f 392/384/301 393/383/301 395/385/301 394/386/301
f 394/386/302 395/385/302 397/387/302 396/388/302
f 387/389/303 385/390/303 399/391/303 397/392/303 395/393/303 393/394/303 391/395/303 389/396/303
f 396/388/304 397/387/304 399/397/304 398/398/304
f 398/398/305 399/397/305 385/399/305 384/400/305
f 384/401/306 386/402/306 388/403/306 390/404/306 392/405/306 394/406/306 396/407/306 398/408/306
o starboard_engine_strut
v -2.934580 0.694574 -0.519458
v -1.734580 0.504574 -0.399458
v -2.935013 0.670684 -0.552954
v -1.735013 0.480684 -0.432954
v -2.942338 0.632029 -0.540909
v -1.742338 0.442029 -0.420909
v -2.946432 0.632029 -0.499968
v -1.746432 0.442029 -0.379968
v -2.941638 0.670684 -0.486711
v -1.741637 0.480684 -0.366711
vn 0.1838 0.7992 -0.5723
vn 0.0468 -0.3053 -0.9511
vn -0.1549 -0.9878 -0.0155
vn 0.9829 -0.1556 0.0983
vn -0.1425 -0.3053 0.9416
vn 0.0668 0.7992 0.5974
vn -0.9829 0.1556 -0.0983
vt 1.000000 0.500000
vt 1.000000 1.000000
vt 0.800000 1.000000
vt 0.800000 0.500000
vt 0.600000 1.000000
vt 0.600000 0.500000
vt 0.400000 1.000000
vt 0.400000 0.500000
vt 0.478254 0.324164
vt 0.250000 0.490000
vt 0.021746 0.324164
vt 0.108932 0.055836
vt 0.391068 0.055836
vt 0.200000 1.000000
vt 0.200000 0.500000
vt 0.000000 1.000000
vt 0.000000 0.500000
vt 0.750000 0.490000
vt 0.978254 0.324164
vt 0.891068 0.055836
vt 0.608932 0.055836
vt 0.521746 0.324164
s 0
usemtl Frame_|_charcoal
f 400/409/307 401/410/307 403/411/307 402/412/307
f 402/412/308 403/411/308 405/413/308 404/414/308
f 404/414/309 405/413/309 407/415/309 406/416/309
f 403/417/310 401/418/310 409/419/310 407/420/310 405/421/310
f 406/416/311 407/415/311 409/422/311 408/423/311
f 408/423/312 409/422/312 401/424/312 400/425/312
f 400/426/313 402/427/313 404/428/313 406/429/313 408/430/313
o starboard_engine_strut.001
v -2.934580 0.694574 -0.819458
v -1.734580 0.504574 -0.699458
v -2.935013 0.670684 -0.852954
v -1.735013 0.480684 -0.732954
v -2.942338 0.632029 -0.840909
v -1.742338 0.442029 -0.720909
v -2.946432 0.632029 -0.799968
v -1.746432 0.442029 -0.679968
v -2.941638 0.670684 -0.786711
v -1.741637 0.480684 -0.666711
vn 0.1838 0.7992 -0.5723
vn 0.0468 -0.3053 -0.9511
vn -0.1549 -0.9878 -0.0155
vn 0.9829 -0.1556 0.0983
vn -0.1425 -0.3053 0.9416
vn 0.0668 0.7992 0.5974
vn -0.9829 0.1556 -0.0983
vt 1.000000 0.500000
vt 1.000000 1.000000
vt 0.800000 1.000000
vt 0.800000 0.500000
vt 0.600000 1.000000
vt 0.600000 0.500000
vt 0.400000 1.000000
vt 0.400000 0.500000
vt 0.478254 0.324164
vt 0.250000 0.490000
vt 0.021746 0.324164
vt 0.108932 0.055836
vt 0.391068 0.055836
vt 0.200000 1.000000
vt 0.200000 0.500000
vt 0.000000 1.000000
vt 0.000000 0.500000
vt 0.750000 0.490000
vt 0.978254 0.324164
vt 0.891068 0.055836
vt 0.608932 0.055836
vt 0.521746 0.324164
s 0
usemtl Frame_|_charcoal
f 410/431/314 411/432/314 413/433/314 412/434/314
f 412/434/315 413/433/315 415/435/315 414/436/315
f 414/436/316 415/435/316 417/437/316 416/438/316
f 413/439/317 411/440/317 419/441/317 417/442/317 415/443/317
f 416/438/318 417/437/318 419/444/318 418/445/318
f 418/445/319 419/444/319 411/446/319 410/447/319
f 410/448/320 412/449/320 414/450/320 416/451/320 418/452/320
o Cockpit_well
v -1.435000 0.512500 0.455000
v -1.435000 0.607500 0.455000
v -1.435000 0.512500 -0.455000
v -1.435000 0.607500 -0.455000
v 0.335000 0.512500 0.455000
v 0.335000 0.607500 0.455000
v 0.335000 0.512500 -0.455000
v 0.335000 0.607500 -0.455000
vn -1.0000 -0.0000 -0.0000
vn -0.0000 -0.0000 -1.0000
vn 1.0000 -0.0000 -0.0000
vn -0.0000 -0.0000 1.0000
vn -0.0000 -1.0000 -0.0000
vn -0.0000 1.0000 -0.0000
vt 0.375000 0.000000
vt 0.625000 0.000000
vt 0.625000 0.250000
vt 0.375000 0.250000
vt 0.625000 0.500000
vt 0.375000 0.500000
vt 0.625000 0.750000
vt 0.375000 0.750000
vt 0.625000 1.000000
vt 0.375000 1.000000
vt 0.125000 0.500000
vt 0.125000 0.750000
vt 0.875000 0.500000
vt 0.875000 0.750000
s 0
usemtl Frame_|_charcoal
f 420/453/321 421/454/321 423/455/321 422/456/321
f 422/456/322 423/455/322 427/457/322 426/458/322
f 426/458/323 427/457/323 425/459/323 424/460/323
f 424/460/324 425/459/324 421/461/324 420/462/324
f 422/463/325 426/458/325 424/460/325 420/464/325
f 427/457/326 423/465/326 421/466/326 425/459/326
o Seat_cushion
v -1.275000 0.580000 0.280000
v -1.275000 0.720000 0.280000
v -1.275000 0.580000 -0.280000
v -1.275000 0.720000 -0.280000
v -0.385000 0.580000 0.280000
v -0.385000 0.720000 0.280000
v -0.385000 0.580000 -0.280000
v -0.385000 0.720000 -0.280000
vn -1.0000 -0.0000 -0.0000
vn -0.0000 -0.0000 -1.0000
vn 1.0000 -0.0000 -0.0000
vn -0.0000 -0.0000 1.0000
vn -0.0000 -1.0000 -0.0000
vn -0.0000 1.0000 -0.0000
vt 0.375000 0.000000
vt 0.625000 0.000000
vt 0.625000 0.250000
vt 0.375000 0.250000
vt 0.625000 0.500000
vt 0.375000 0.500000
vt 0.625000 0.750000
vt 0.375000 0.750000
vt 0.625000 1.000000
vt 0.375000 1.000000
vt 0.125000 0.500000
vt 0.125000 0.750000
vt 0.875000 0.500000
vt 0.875000 0.750000
s 0
usemtl Cockpit_|_dark_upholstery
f 428/467/327 429/468/327 431/469/327 430/470/327
f 430/470/328 431/469/328 435/471/328 434/472/328
f 434/472/329 435/471/329 433/473/329 432/474/329
f 432/474/330 433/473/330 429/475/330 428/476/330
f 430/477/331 434/472/331 432/474/331 428/478/331
f 435/471/332 431/479/332 429/480/332 433/473/332
o Seat_back
v -1.280000 0.555000 0.275000
v -1.280000 1.145000 0.275000
v -1.280000 0.555000 -0.275000
v -1.280000 1.145000 -0.275000
v -1.120000 0.555000 0.275000
v -1.120000 1.145000 0.275000
v -1.120000 0.555000 -0.275000
v -1.120000 1.145000 -0.275000
vn -1.0000 -0.0000 -0.0000
vn -0.0000 -0.0000 -1.0000
vn 1.0000 -0.0000 -0.0000
vn -0.0000 -0.0000 1.0000
vn -0.0000 -1.0000 -0.0000
vn -0.0000 1.0000 -0.0000
vt 0.375000 0.000000
vt 0.625000 0.000000
vt 0.625000 0.250000
vt 0.375000 0.250000
vt 0.625000 0.500000
vt 0.375000 0.500000
vt 0.625000 0.750000
vt 0.375000 0.750000
vt 0.625000 1.000000
vt 0.375000 1.000000
vt 0.125000 0.500000
vt 0.125000 0.750000
vt 0.875000 0.500000
vt 0.875000 0.750000
s 0
usemtl Cockpit_|_dark_upholstery
f 436/481/333 437/482/333 439/483/333 438/484/333
f 438/484/334 439/483/334 443/485/334 442/486/334
f 442/486/335 443/485/335 441/487/335 440/488/335
f 440/488/336 441/487/336 437/489/336 436/490/336
f 438/491/337 442/486/337 440/488/337 436/492/337
f 443/485/338 439/493/338 437/494/338 441/487/338
o Seat_headrest
v -1.345000 1.020000 0.170000
v -1.345000 1.220000 0.170000
v -1.345000 1.020000 -0.170000
v -1.345000 1.220000 -0.170000
v -1.175000 1.020000 0.170000
v -1.175000 1.220000 0.170000
v -1.175000 1.020000 -0.170000
v -1.175000 1.220000 -0.170000
vn -1.0000 -0.0000 -0.0000
vn -0.0000 -0.0000 -1.0000
vn 1.0000 -0.0000 -0.0000
vn -0.0000 -0.0000 1.0000
vn -0.0000 -1.0000 -0.0000
vn -0.0000 1.0000 -0.0000
vt 0.375000 0.000000
vt 0.625000 0.000000
vt 0.625000 0.250000
vt 0.375000 0.250000
vt 0.625000 0.500000
vt 0.375000 0.500000
vt 0.625000 0.750000
vt 0.375000 0.750000
vt 0.625000 1.000000
vt 0.375000 1.000000
vt 0.125000 0.500000
vt 0.125000 0.750000
vt 0.875000 0.500000
vt 0.875000 0.750000
s 0
usemtl Cockpit_|_dark_upholstery
f 444/495/339 445/496/339 447/497/339 446/498/339
f 446/498/340 447/497/340 451/499/340 450/500/340
f 450/500/341 451/499/341 449/501/341 448/502/341
f 448/502/342 449/501/342 445/503/342 444/504/342
f 446/505/343 450/500/343 448/502/343 444/506/343
f 451/499/344 447/507/344 445/508/344 449/501/344
o port_cockpit_rim
v -1.650000 0.520000 0.690000
v -1.650000 0.730000 0.690000
v -1.650000 0.820000 0.590000
v -1.650000 0.730000 0.490000
v -1.650000 0.520000 0.490000
v -0.930000 0.490000 0.660000
v -0.930000 0.580000 0.660000
v -0.930000 0.670000 0.560000
v -0.930000 0.580000 0.460000
v -0.930000 0.490000 0.460000
v 0.110000 0.450000 0.600000
v 0.110000 0.560000 0.600000
v 0.110000 0.650000 0.510000
v 0.110000 0.560000 0.420000
v 0.110000 0.450000 0.420000
v 0.510000 0.510000 0.520000
v 0.510000 0.670000 0.520000
v 0.510000 0.760000 0.500000
v 0.510000 0.670000 0.480000
v 0.510000 0.510000 0.480000
vn 1.0000 -0.0000 -0.0000
vn -0.0416 -0.0000 -0.9991
vn -0.1798 -0.7312 -0.6581
vn -0.1260 -0.7374 0.6636
vn 0.0416 -0.0000 0.9991
vn 0.0416 0.9991 -0.0000
vn -0.0576 -0.0000 -0.9983
vn -0.0503 -0.7250 -0.6869
vn 0.0158 -0.7259 0.6877
vn 0.0384 -0.0000 0.9993
vn 0.0384 0.9993 -0.0000
vn -0.1961 -0.0000 -0.9806
vn 0.0474 -0.5209 -0.8523
vn 0.0897 -0.5193 0.8498
vn -0.1483 -0.0000 0.9889
vn -0.1483 0.9889 -0.0000
vn -1.0000 -0.0000 -0.0000
s 0
usemtl Armor_|_shadow_facets
f 453//347 454//347 459//347 458//347
f 454//348 455//348 460//348 459//348
f 458//352 459//352 464//352 463//352
f 459//353 460//353 465//353 464//353
f 463//357 464//357 469//357 468//357
f 464//358 465//358 470//358 469//358
usemtl Frame_|_gunmetal
f 456//345 455//345 454//345 453//345 452//345
f 452//346 453//346 458//346 457//346
f 455//349 456//349 461//349 460//349
f 456//350 452//350 457//350 461//350
f 457//351 458//351 463//351 462//351
f 460//354 461//354 466//354 465//354
f 461//355 457//355 462//355 466//355
f 462//356 463//356 468//356 467//356
f 465//359 466//359 471//359 470//359
f 466//360 462//360 467//360 471//360
f 467//361 468//361 469//361 470//361 471//361
o port_cockpit_handle
v 0.142905 0.651724 0.270517
v 0.342905 0.931724 0.340517
v 0.166752 0.640862 0.245832
v 0.366752 0.920862 0.315832
v 0.193847 0.619138 0.255315
v 0.393847 0.899138 0.325315
v 0.197095 0.608276 0.289483
v 0.397095 0.888276 0.359483
v 0.173248 0.619138 0.314168
v 0.373248 0.899138 0.384168
v 0.146153 0.640862 0.304685
v 0.346153 0.920862 0.374685
vn -0.4866 0.5226 -0.7001
vn 0.3304 -0.0000 -0.9439
vn 0.8170 -0.5226 -0.2438
vn 0.4866 -0.5226 0.7001
vn 0.5696 0.7974 0.1994
vn -0.3304 -0.0000 0.9439
vn -0.8170 0.5226 0.2438
vn -0.5696 -0.7974 -0.1994
vt 1.000000 0.500000
vt 1.000000 1.000000
vt 0.833333 1.000000
vt 0.833333 0.500000
vt 0.666667 1.000000
vt 0.666667 0.500000
vt 0.500000 1.000000
vt 0.500000 0.500000
vt 0.333333 1.000000
vt 0.333333 0.500000
vt 0.457846 0.370000
vt 0.250000 0.490000
vt 0.042154 0.370000
vt 0.042154 0.130000
vt 0.250000 0.010000
vt 0.457846 0.130000
vt 0.166667 1.000000
vt 0.166667 0.500000
vt -0.000000 1.000000
vt -0.000000 0.500000
vt 0.750000 0.490000
vt 0.957846 0.370000
vt 0.957846 0.130000
vt 0.750000 0.010000
vt 0.542154 0.130000
vt 0.542154 0.370000
s 0
usemtl Frame_|_gunmetal
f 472/509/362 473/510/362 475/511/362 474/512/362
f 474/512/363 475/511/363 477/513/363 476/514/363
f 476/514/364 477/513/364 479/515/364 478/516/364
f 478/516/365 479/515/365 481/517/365 480/518/365
f 475/519/366 473/520/366 483/521/366 481/522/366 479/523/366 477/524/366
f 480/518/367 481/517/367 483/525/367 482/526/367
f 482/526/368 483/525/368 473/527/368 472/528/368
f 472/529/369 474/530/369 476/531/369 478/532/369 480/533/369 482/534/369
o port_cockpit_locator_light
v -1.427234 0.661824 0.699765
v -0.957234 0.601824 0.659765
v -1.430919 0.646744 0.679079
v -0.960919 0.586744 0.639079
v -1.433334 0.622344 0.687306
v -0.963334 0.562344 0.647306
v -1.431141 0.622344 0.713075
v -0.961141 0.562344 0.673075
v -1.427371 0.646744 0.720775
v -0.957371 0.586744 0.680775
vn 0.0519 0.8026 -0.5943
vn -0.1195 -0.3065 -0.9443
vn -0.1257 -0.9920 0.0107
vn 0.9884 -0.1262 -0.0841
vn 0.0418 -0.3065 0.9509
vn 0.1516 0.8026 0.5770
vn -0.9884 0.1262 0.0841
vt 1.000000 0.500000
vt 1.000000 1.000000
vt 0.800000 1.000000
vt 0.800000 0.500000
vt 0.600000 1.000000
vt 0.600000 0.500000
vt 0.400000 1.000000
vt 0.400000 0.500000
vt 0.478254 0.324164
vt 0.250000 0.490000
vt 0.021746 0.324164
vt 0.108932 0.055836
vt 0.391068 0.055836
vt 0.200000 1.000000
vt 0.200000 0.500000
vt 0.000000 1.000000
vt 0.000000 0.500000
vt 0.750000 0.490000
vt 0.978254 0.324164
vt 0.891068 0.055836
vt 0.608932 0.055836
vt 0.521746 0.324164
s 0
usemtl Lights_|_electric_blue
f 484/535/370 485/536/370 487/537/370 486/538/370
f 486/538/371 487/537/371 489/539/371 488/540/371
f 488/540/372 489/539/372 491/541/372 490/542/372
f 487/543/373 485/544/373 493/545/373 491/546/373 489/547/373
f 490/542/374 491/541/374 493/548/374 492/549/374
f 492/549/375 493/548/375 485/550/375 484/551/375
f 484/552/376 486/553/376 488/554/376 490/555/376 492/556/376
o starboard_cockpit_rim
v -1.650000 0.520000 -0.490000
v -1.650000 0.730000 -0.490000
v -1.650000 0.820000 -0.590000
v -1.650000 0.730000 -0.690000
v -1.650000 0.520000 -0.690000
v -0.930000 0.490000 -0.460000
v -0.930000 0.580000 -0.460000
v -0.930000 0.670000 -0.560000
v -0.930000 0.580000 -0.660000
v -0.930000 0.490000 -0.660000
v 0.110000 0.450000 -0.420000
v 0.110000 0.560000 -0.420000
v 0.110000 0.650000 -0.510000
v 0.110000 0.560000 -0.600000
v 0.110000 0.450000 -0.600000
v 0.510000 0.510000 -0.480000
v 0.510000 0.670000 -0.480000
v 0.510000 0.760000 -0.500000
v 0.510000 0.670000 -0.520000
v 0.510000 0.510000 -0.520000
vn 1.0000 -0.0000 -0.0000
vn 0.0416 -0.0000 -0.9991
vn -0.1260 -0.7374 -0.6636
vn -0.1798 -0.7312 0.6581
vn -0.0416 -0.0000 0.9991
vn 0.0416 0.9991 -0.0000
vn 0.0384 -0.0000 -0.9993
vn 0.0158 -0.7259 -0.6877
vn -0.0503 -0.7250 0.6869
vn -0.0576 -0.0000 0.9983
vn 0.0384 0.9993 -0.0000
vn -0.1483 -0.0000 -0.9889
vn 0.0897 -0.5193 -0.8498
vn 0.0474 -0.5209 0.8523
vn -0.1961 -0.0000 0.9806
vn -0.1483 0.9889 -0.0000
vn -1.0000 -0.0000 -0.0000
s 0
usemtl Armor_|_shadow_facets
f 495//379 496//379 501//379 500//379
f 496//380 497//380 502//380 501//380
f 500//384 501//384 506//384 505//384
f 501//385 502//385 507//385 506//385
f 505//389 506//389 511//389 510//389
f 506//390 507//390 512//390 511//390
usemtl Frame_|_gunmetal
f 498//377 497//377 496//377 495//377 494//377
f 494//378 495//378 500//378 499//378
f 497//381 498//381 503//381 502//381
f 498//382 494//382 499//382 503//382
f 499//383 500//383 505//383 504//383
f 502//386 503//386 508//386 507//386
f 503//387 499//387 504//387 508//387
f 504//388 505//388 510//388 509//388
f 507//391 508//391 513//391 512//391
f 508//392 504//392 509//392 513//392
f 509//393 510//393 511//393 512//393 513//393
o starboard_cockpit_handle
v 0.142905 0.651724 -0.270517
v 0.342905 0.931724 -0.340517
v 0.146153 0.640862 -0.304685
v 0.346153 0.920862 -0.374685
v 0.173248 0.619138 -0.314168
v 0.373248 0.899138 -0.384168
v 0.197095 0.608276 -0.289483
v 0.397095 0.888276 -0.359483
v 0.193847 0.619138 -0.255315
v 0.393847 0.899138 -0.325315
v 0.166752 0.640862 -0.245832
v 0.366752 0.920862 -0.315832
vn -0.8170 0.5226 -0.2438
vn -0.3304 -0.0000 -0.9439
vn 0.4866 -0.5226 -0.7001
vn 0.8170 -0.5226 0.2438
vn 0.5696 0.7974 -0.1993
vn 0.3304 -0.0000 0.9439
vn -0.4866 0.5226 0.7001
vn -0.5696 -0.7974 0.1994
vt 1.000000 0.500000
vt 1.000000 1.000000
vt 0.833333 1.000000
vt 0.833333 0.500000
vt 0.666667 1.000000
vt 0.666667 0.500000
vt 0.500000 1.000000
vt 0.500000 0.500000
vt 0.333333 1.000000
vt 0.333333 0.500000
vt 0.457846 0.370000
vt 0.250000 0.490000
vt 0.042154 0.370000
vt 0.042154 0.130000
vt 0.250000 0.010000
vt 0.457846 0.130000
vt 0.166667 1.000000
vt 0.166667 0.500000
vt -0.000000 1.000000
vt -0.000000 0.500000
vt 0.750000 0.490000
vt 0.957846 0.370000
vt 0.957846 0.130000
vt 0.750000 0.010000
vt 0.542154 0.130000
vt 0.542154 0.370000
s 0
usemtl Frame_|_gunmetal
f 514/557/394 515/558/394 517/559/394 516/560/394
f 516/560/395 517/559/395 519/561/395 518/562/395
f 518/562/396 519/561/396 521/563/396 520/564/396
f 520/564/397 521/563/397 523/565/397 522/566/397
f 517/567/398 515/568/398 525/569/398 523/570/398 521/571/398 519/572/398
f 522/566/399 523/565/399 525/573/399 524/574/399
f 524/574/400 525/573/400 515/575/400 514/576/400
f 514/577/401 516/578/401 518/579/401 520/580/401 522/581/401 524/582/401
o starboard_cockpit_locator_light
v -1.427234 0.661824 -0.699765
v -0.957234 0.601824 -0.659765
v -1.427371 0.646744 -0.720775
v -0.957371 0.586744 -0.680775
v -1.431141 0.622344 -0.713075
v -0.961141 0.562344 -0.673075
v -1.433334 0.622344 -0.687306
v -0.963334 0.562344 -0.647306
v -1.430919 0.646744 -0.679079
v -0.960919 0.586744 -0.639079
vn 0.1516 0.8026 -0.5770
vn 0.0418 -0.3065 -0.9509
vn -0.1257 -0.9920 -0.0107
vn 0.9884 -0.1262 0.0841
vn -0.1195 -0.3065 0.9443
vn 0.0519 0.8026 0.5943
vn -0.9884 0.1262 -0.0841
vt 1.000000 0.500000
vt 1.000000 1.000000
vt 0.800000 1.000000
vt 0.800000 0.500000
vt 0.600000 1.000000
vt 0.600000 0.500000
vt 0.400000 1.000000
vt 0.400000 0.500000
vt 0.478254 0.324164
vt 0.250000 0.490000
vt 0.021746 0.324164
vt 0.108932 0.055836
vt 0.391068 0.055836
vt 0.200000 1.000000
vt 0.200000 0.500000
vt 0.000000 1.000000
vt 0.000000 0.500000
vt 0.750000 0.490000
vt 0.978254 0.324164
vt 0.891068 0.055836
vt 0.608932 0.055836
vt 0.521746 0.324164
s 0
usemtl Lights_|_electric_blue
f 526/583/402 527/584/402 529/585/402 528/586/402
f 528/586/403 529/585/403 531/587/403 530/588/403
f 530/588/404 531/587/404 533/589/404 532/590/404
f 529/591/405 527/592/405 535/593/405 533/594/405 531/595/405
f 532/590/406 533/589/406 535/596/406 534/597/406
f 534/597/407 535/596/407 527/598/407 526/599/407
f 526/600/408 528/601/408 530/602/408 532/603/408 534/604/408
o Forward_instrument_block
v 0.350000 0.545000 0.250000
v 0.350000 0.675000 0.250000
v 0.350000 0.545000 -0.250000
v 0.350000 0.675000 -0.250000
v 0.690000 0.545000 0.250000
v 0.690000 0.675000 0.250000
v 0.690000 0.545000 -0.250000
v 0.690000 0.675000 -0.250000
vn -1.0000 -0.0000 -0.0000
vn -0.0000 -0.0000 -1.0000
vn 1.0000 -0.0000 -0.0000
vn -0.0000 -0.0000 1.0000
vn -0.0000 -1.0000 -0.0000
vn -0.0000 1.0000 -0.0000
vt 0.375000 0.000000
vt 0.625000 0.000000
vt 0.625000 0.250000
vt 0.375000 0.250000
vt 0.625000 0.500000
vt 0.375000 0.500000
vt 0.625000 0.750000
vt 0.375000 0.750000
vt 0.625000 1.000000
vt 0.375000 1.000000
vt 0.125000 0.500000
vt 0.125000 0.750000
vt 0.875000 0.500000
vt 0.875000 0.750000
s 0
usemtl Frame_|_gunmetal
f 536/605/409 537/606/409 539/607/409 538/608/409
f 538/608/410 539/607/410 543/609/410 542/610/410
f 542/610/411 543/609/411 541/611/411 540/612/411
f 540/612/412 541/611/412 537/613/412 536/614/412
f 538/615/413 542/610/413 540/612/413 536/616/413
f 543/609/414 539/617/414 537/618/414 541/611/414
o Instrument_light
v 0.420000 0.681000 0.130000
v 0.420000 0.699000 0.130000
v 0.420000 0.681000 -0.130000
v 0.420000 0.699000 -0.130000
v 0.540000 0.681000 0.130000
v 0.540000 0.699000 0.130000
v 0.540000 0.681000 -0.130000
v 0.540000 0.699000 -0.130000
vn -1.0000 -0.0000 -0.0000
vn -0.0000 -0.0000 -1.0000
vn 1.0000 -0.0000 -0.0000
vn -0.0000 -0.0000 1.0000
vn -0.0000 -1.0000 -0.0000
vn -0.0000 1.0000 -0.0000
vt 0.375000 0.000000
vt 0.625000 0.000000
vt 0.625000 0.250000
vt 0.375000 0.250000
vt 0.625000 0.500000
vt 0.375000 0.500000
vt 0.625000 0.750000
vt 0.375000 0.750000
vt 0.625000 1.000000
vt 0.375000 1.000000
vt 0.125000 0.500000
vt 0.125000 0.750000
vt 0.875000 0.500000
vt 0.875000 0.750000
s 0
usemtl Lights_|_electric_blue
f 544/619/415 545/620/415 547/621/415 546/622/415
f 546/622/416 547/621/416 551/623/416 550/624/416
f 550/624/417 551/623/417 549/625/417 548/626/417
f 548/626/418 549/625/418 545/627/418 544/628/418
f 546/629/419 550/624/419 548/626/419 544/630/419
f 551/623/420 547/631/420 545/632/420 549/625/420
